<svg width="109" height="108" viewBox="0 0 109 108" fill="none" xmlns="http://www.w3.org/2000/svg">
<g clip-path="url(#clip0_254_371)">
<mask id="mask0_254_371" style="mask-type:luminance" maskUnits="userSpaceOnUse" x="0" y="0" width="109" height="108">
<path d="M108.929 0H0.928833V108H108.929V0Z" fill="white"/>
</mask>
<g mask="url(#mask0_254_371)">
<path d="M100.677 53.8002C100.716 62.6223 98.1379 71.2579 93.2691 78.6149C88.4004 85.972 81.4593 91.7202 73.3237 95.1325C65.1881 98.5449 56.2234 99.4681 47.563 97.7856C38.9028 96.1031 30.9358 91.8903 24.6698 85.6801C18.4036 79.4699 14.1197 71.541 12.3597 62.8961C10.5997 54.2513 11.4427 45.2785 14.782 37.1127C18.1213 28.947 23.807 21.9547 31.1202 17.0202C38.4334 12.0857 47.0455 9.43051 55.8677 9.39045C67.6986 9.33799 79.066 13.9873 87.4693 22.3155C95.8726 30.644 100.623 41.9692 100.677 53.8002Z" fill="#8DC63F"/>
<path d="M97.3165 53.8097C97.3535 61.9673 94.9707 69.9529 90.4695 76.7563C85.9682 83.5598 79.5504 88.8758 72.028 92.0319C64.5054 95.188 56.216 96.0427 48.2077 94.4876C40.1995 92.9326 32.8323 89.0377 27.0376 83.2957C21.2429 77.5536 17.2812 70.2222 15.6531 62.2285C14.0251 54.2348 14.8041 45.9378 17.8916 38.3869C20.979 30.8358 26.2361 24.37 32.9984 19.8069C39.7605 15.2436 47.724 12.7882 55.8818 12.7509C61.2984 12.7262 66.6668 13.7686 71.6806 15.8186C76.6944 17.8686 81.2552 20.8861 85.1027 24.6987C88.9503 28.5114 92.0093 33.0445 94.1049 38.0395C96.2005 43.0343 97.2918 48.393 97.3165 53.8097Z" fill="#F9E988"/>
<path d="M56.8218 15.4252C59.4439 14.9571 62.1284 14.9571 64.7505 15.4252C67.3979 15.8447 69.9568 16.7024 72.3221 17.9631C74.6722 19.2557 76.7073 21.0088 78.7281 22.6631C80.7492 24.3175 82.7654 25.9907 84.6831 27.833C86.6382 29.6445 88.3452 31.707 89.7589 33.9665C91.2167 36.2108 92.4106 38.6158 93.3167 41.1339C95.08 46.1635 95.582 51.5488 94.7785 56.8176H94.5154C93.7411 51.7841 92.4464 46.8446 90.6519 42.0785C89.7919 39.7216 88.7793 37.4232 87.6204 35.1978C86.4026 32.979 85.0627 30.8293 83.6068 28.759C82.1216 26.6634 80.302 24.8262 78.2206 23.3211C76.1291 21.8312 73.7227 20.8631 71.3916 19.9466C69.0603 19.0301 66.7292 18.1183 64.3088 17.418C61.8883 16.7178 59.4115 16.196 56.8311 15.6884L56.8218 15.4252Z" fill="white"/>
<path d="M76.9845 39.2398C73.9906 38.3702 70.8745 37.1437 67.7444 35.9029C67.5658 35.1133 66.8655 34.131 65.4555 32.9325C63.4016 31.1512 59.5477 31.1982 56.2155 31.9925C52.5401 31.1276 48.9071 30.8221 45.4056 31.6588C16.9004 39.5078 33.0682 58.6976 22.5967 77.9674C24.0866 81.1258 40.1463 99.587 63.3828 94.6193C63.3828 94.6193 55.44 75.5234 73.3703 66.3585C87.9166 58.8997 98.4303 45.0912 76.9845 39.2398Z" fill="#8BC53F"/>
<path d="M80.5048 51.7933C80.5075 52.1358 80.4087 52.4713 80.2205 52.7576C80.0323 53.0437 79.7635 53.2676 79.448 53.4008C79.1325 53.5339 78.7845 53.5705 78.4482 53.5058C78.112 53.441 77.8025 53.2779 77.5589 53.0371C77.3154 52.7961 77.1489 52.4885 77.0804 52.1529C77.012 51.8174 77.0449 51.469 77.1745 51.152C77.3043 50.8351 77.5254 50.5639 77.8093 50.3725C78.0935 50.1813 78.4279 50.0788 78.7704 50.0778C78.9971 50.0766 79.2215 50.12 79.4312 50.2056C79.641 50.2911 79.8318 50.4171 79.9929 50.5763C80.1539 50.7357 80.282 50.9251 80.3699 51.134C80.4577 51.3427 80.5035 51.5668 80.5048 51.7933Z" fill="white"/>
<path d="M56.2154 31.9831C58.2927 32.1335 65.808 34.5868 67.7444 35.9029C66.1418 31.203 60.6944 30.592 56.2154 31.9831Z" fill="#009345"/>
<path d="M58.1941 43.8364C58.1941 45.4167 57.7255 46.9614 56.8476 48.2753C55.9697 49.5892 54.7217 50.6134 53.2618 51.2181C51.8019 51.8228 50.1953 51.981 48.6455 51.6728C47.0956 51.3644 45.672 50.6035 44.5545 49.4861C43.4371 48.3687 42.6761 46.945 42.3678 45.3952C42.0596 43.8453 42.2178 42.2388 42.8225 40.7788C43.4272 39.3188 44.4514 38.071 45.7653 37.193C47.0793 36.3151 48.624 35.8466 50.2042 35.8466C52.3232 35.8466 54.3556 36.6883 55.8539 38.1867C57.3523 39.6851 58.1941 41.7173 58.1941 43.8364Z" fill="white"/>
<path d="M55.83 43.9068C55.831 45.0169 55.5027 46.1023 54.8865 47.0259C54.2705 47.9492 53.3945 48.6692 52.3691 49.0948C51.3438 49.5202 50.2153 49.6321 49.1264 49.4161C48.0375 49.2001 47.0372 48.6659 46.2518 47.8813C45.4666 47.0967 44.9317 46.0967 44.7147 45.008C44.4979 43.9194 44.6087 42.7908 45.0333 41.7651C45.458 40.7393 46.1771 39.8627 47.1001 39.2458C48.023 38.629 49.1082 38.2998 50.2183 38.2998C51.7055 38.3011 53.1314 38.892 54.1835 39.9432C55.2353 40.9942 55.8275 42.4197 55.83 43.9068Z" fill="#58595B"/>
<path d="M86.9673 55.3089C80.5048 59.8631 73.154 63.2989 62.7297 63.2989C57.851 63.2989 56.8641 58.129 53.6399 60.6574C51.9714 61.9688 46.12 64.8875 41.4435 64.6807C36.7671 64.4739 29.2237 61.7244 27.1322 51.7839C26.3004 61.7244 25.8727 69.0469 22.1409 77.441C29.5762 89.346 47.2997 98.525 63.3828 94.577C61.658 82.5076 72.2047 70.6825 78.1501 64.6336C80.3966 62.3448 84.73 58.6036 86.9673 55.2901V55.3089Z" fill="#8BC53F"/>
<path d="M86.7134 55.6097C84.6545 57.3804 82.3574 58.8532 79.889 59.9853C77.4287 61.1544 74.8638 62.0891 72.2282 62.7771C69.5962 63.4587 66.842 63.971 64.0549 63.7171C61.2678 63.4634 58.4149 62.5139 56.5774 60.4272L56.6666 60.3238C58.9413 61.7949 61.5405 62.3118 64.1348 62.387C66.769 62.4636 69.4033 62.2444 71.9884 61.7338C74.6002 61.1894 77.1554 60.4027 79.6211 59.3838C82.1266 58.427 84.4855 57.1234 86.6288 55.511L86.7134 55.6097Z" fill="#58595B"/>
</g>
</g>
<defs>
<clipPath id="clip0_254_371">
<rect width="108" height="108" fill="white" transform="translate(0.928833)"/>
</clipPath>
</defs>
</svg>
