<svg width="101" height="108" viewBox="0 0 101 108" fill="none" xmlns="http://www.w3.org/2000/svg">
<g clip-path="url(#clip0_254_358)">
<mask id="mask0_254_358" style="mask-type:luminance" maskUnits="userSpaceOnUse" x="0" y="0" width="101" height="108">
<path d="M100.929 0H0.928833V108H100.929V0Z" fill="white"/>
</mask>
<g mask="url(#mask0_254_358)">
<path d="M83.9237 63.4635C82.4113 64.4081 80.6469 64.5798 79.3026 63.807C77.6221 62.7765 76.6139 60.4579 76.6139 57.2806V47.5769C76.6139 42.9398 74.8495 39.5907 71.8247 38.732C66.6995 37.1863 62.8345 43.6268 61.4062 46.0312L52.3322 60.8873V42.5963C52.2482 38.3885 50.9038 35.8982 48.3832 35.1253C46.7028 34.6101 44.1822 34.8677 41.7456 38.6461L21.4966 71.7932C18.808 66.5549 17.3796 60.7155 17.3796 54.7903C17.3796 34.7818 33.0915 18.5518 52.3322 18.5518C71.5727 18.5518 87.2845 34.7818 87.2845 54.7903V54.8762V54.962C87.4526 58.8263 86.2763 61.9178 83.9237 63.4635ZM95.0144 54.7903V54.7044V54.6185C94.9304 30.3164 75.7737 10.4797 52.3322 10.4797C28.8064 10.4797 9.64972 30.3164 9.64972 54.7903C9.64972 79.1783 28.8064 99.1008 52.3322 99.1008C63.1706 99.1008 73.4211 94.8931 81.3191 87.2504C82.9154 85.7046 82.9995 83.2143 81.4871 81.5827C80.0587 79.9511 77.6221 79.8653 76.0258 81.3251C76.0258 81.3251 76.0257 81.3251 75.9417 81.411C69.5562 87.5938 60.9861 91.1146 52.1642 91.1146C41.8296 91.1146 32.5873 86.4775 26.2018 79.0924L44.4343 49.2085V63.0341C44.4343 69.6464 46.9549 71.7932 49.0554 72.3943C51.1559 72.9954 54.3484 72.566 57.7933 66.9843L67.7917 50.4108C68.1278 49.8955 68.3799 49.3803 68.716 49.0368V57.4524C68.716 63.6352 71.1526 68.6159 75.3536 71.0203C79.1345 73.253 83.9237 72.9954 87.8727 70.5051C92.7459 67.2419 95.3505 61.5743 95.0144 54.7903Z" fill="#17181B"/>
</g>
</g>
<defs>
<clipPath id="clip0_254_358">
<rect width="100" height="108" fill="white" transform="translate(0.928833)"/>
</clipPath>
</defs>
</svg>
