<svg width="158" height="44" viewBox="0 0 158 44" fill="none" xmlns="http://www.w3.org/2000/svg">
<g clip-path="url(#clip0_254_364)">
<path d="M120.03 43.7387H157.82L153.272 33.4899H132.919V26.5964H148.723V17.093H132.921V10.5084H153.267L157.829 0.329465L120.03 0.26123V43.7387ZM40.2288 0.26123L44.2928 10.3037H53.0605V43.7387H65.0643V10.3037H73.9674L78.0278 0.26123L40.2288 0.26123ZM21.5579 33.7338C25.1314 33.7338 27.1897 32.3418 27.1897 29.8615V29.7421C27.1897 27.4426 25.3722 25.9312 21.4366 25.9312H12.4737V33.7338H21.5579ZM19.8616 17.7055C23.4352 17.7055 25.4337 16.4943 25.4337 14.0157V13.8945C25.4337 11.5967 23.6162 10.2644 20.1042 10.2644H12.4755V17.7055H19.8616ZM77.896 36.772L84.4981 29.0256C88.7168 32.3282 93.4223 34.0699 98.3739 34.0699C101.554 34.0699 103.266 32.9883 103.266 31.1869V31.0675C103.266 29.3275 101.86 28.3654 96.0519 27.0434C86.9432 25.0032 79.9139 22.4802 79.9139 13.8331V13.7137C79.9121 5.90425 86.2102 0.26123 96.479 0.26123C103.754 0.26123 109.439 2.18375 114.085 5.84625L108.156 14.0737C104.243 11.3699 99.9647 9.92839 96.1732 9.92839C93.301 9.92839 91.8948 11.131 91.8948 12.6322V12.7516C91.8948 14.6741 93.3625 15.5151 99.2915 16.8355C109.135 18.9371 115.247 22.0588 115.247 29.9263V30.0457C115.247 38.6348 108.339 43.7387 97.9468 43.7387C90.3673 43.7387 83.1534 41.3966 77.896 36.772ZM1.02893 0.829285H22.769C28.0967 0.829285 31.8513 2.15986 34.335 4.6402C36.0295 6.33413 37.0596 8.57223 37.0596 11.4756V11.595C37.0596 16.496 34.2735 19.3977 30.5207 21.0319C35.6674 22.7258 38.9369 25.6292 38.9369 31.3746V31.4957C38.9369 38.7542 33.0027 43.1707 22.8885 43.1707H1.03069V0.830991L1.02893 0.829285Z" fill="#015FE5"/>
</g>
<defs>
<clipPath id="clip0_254_364">
<rect width="157" height="44" fill="white" transform="translate(0.928833)"/>
</clipPath>
</defs>
</svg>
