<svg width="134" height="88" viewBox="0 0 134 88" fill="none" xmlns="http://www.w3.org/2000/svg">
<g clip-path="url(#clip0_254_386)">
<path d="M101.935 86.8693V65.653H115.886V68.5687H105.435V74.7321H115.886V77.7664H105.435V83.7876H115.886V86.8693H101.935Z" fill="#0B213E"/>
<path d="M116.677 86.8693L123.629 75.7752L117.468 65.6766H121.136L124.228 70.8681C124.396 71.1289 124.708 71.6978 125.139 72.5512L125.355 72.9779C125.523 72.6697 125.69 72.3616 125.882 72.0297C126.074 71.6978 126.29 71.3185 126.529 70.9155L129.789 65.7003H133.385L127.105 75.7277L133.864 86.8693H130.005L126.409 80.8481L126.362 80.7533C125.978 80.0184 125.618 79.3547 125.283 78.7146C125.115 79.0465 124.947 79.3784 124.731 79.734C124.54 80.0895 124.324 80.4451 124.108 80.8007L120.369 86.8693H116.677Z" fill="#0B213E"/>
<path d="M13.2906 66.1744H10.1265L1.88046 87.0352H5.42815L7.7773 81.0614H15.5918L17.8691 87.0352H21.5366L13.3386 66.293L13.2906 66.1744ZM8.97585 77.8138L11.7085 70.6785L14.3933 77.8138H8.97585Z" fill="#0B213E"/>
<path d="M47.4732 81.0852C47.0417 81.986 46.4424 82.6971 45.6753 83.1949C44.9083 83.6928 44.0453 83.9298 43.0865 83.9298C41.6722 83.9298 40.4736 83.432 39.5148 82.4364C38.556 81.4407 38.0766 80.1844 38.0766 78.6672C38.0766 77.1975 38.556 75.9174 39.4908 74.9218C40.4257 73.9261 41.5763 73.4046 42.9187 73.4046C43.9734 73.4046 44.8843 73.6417 45.6274 74.0921C46.3705 74.5425 46.9937 75.2299 47.4732 76.1544L47.5211 76.2493H50.9489L50.877 76.0359C50.2778 74.2343 49.271 72.812 47.9286 71.8163C46.5862 70.8207 44.9802 70.2992 43.1584 70.2992C41.9838 70.2992 40.8812 70.5362 39.8504 70.9867C38.8197 71.4371 37.8848 72.1008 37.0698 72.9779C36.3267 73.7602 35.7514 74.661 35.3678 75.6092C34.9843 76.5811 34.7925 77.6005 34.7925 78.7146C34.7925 79.7814 35.0083 80.8481 35.4158 81.8674C35.8473 82.8868 36.4226 83.8113 37.1657 84.5699C37.9567 85.3758 38.8436 85.9922 39.8025 86.3952C40.7613 86.7982 41.864 87.0115 43.0385 87.0115C44.9322 87.0115 46.5383 86.5137 47.8567 85.5418C49.1751 84.5699 50.1819 83.1001 50.8291 81.2037L50.901 80.9903H47.4492L47.4732 81.0852Z" fill="#0B213E"/>
<path d="M66.6499 73.9972C65.8589 72.8357 64.8521 71.9348 63.6535 71.2948C62.455 70.6547 61.1366 70.3229 59.7223 70.3229C58.5477 70.3229 57.4451 70.5362 56.4383 70.9866C55.4315 71.4133 54.5446 72.0771 53.7535 72.9305C53.0104 73.7128 52.4351 74.6136 52.0516 75.5855C51.6681 76.5574 51.4763 77.6004 51.4763 78.7146C51.4763 79.7813 51.692 80.8481 52.0995 81.8674C52.531 82.8867 53.1063 83.8113 53.8494 84.5698C54.6405 85.3995 55.5274 86.0159 56.5102 86.4189C57.493 86.8219 58.5717 87.0352 59.7463 87.0352C61.4961 87.0352 63.0543 86.5611 64.3727 85.6366C65.6911 84.7121 66.7218 83.3609 67.4649 81.6067L67.5608 81.3696H64.0371L63.9891 81.4644C63.5576 82.2467 62.9584 82.863 62.2153 83.266C61.4722 83.6927 60.6572 83.9061 59.7463 83.9061C58.4998 83.9061 57.3971 83.5031 56.4862 82.7445C55.6233 82.0097 55.048 81.0614 54.8083 79.8999H67.9683V79.2835C67.9683 78.1931 67.8484 77.2212 67.6327 76.3678C67.4649 75.5144 67.1053 74.7084 66.6499 73.9972ZM54.9521 77.0552C55.2877 75.9648 55.887 75.064 56.702 74.4239C57.5649 73.7365 58.6196 73.3809 59.8182 73.3809C60.9688 73.3809 61.9756 73.7127 62.8145 74.4002C63.6056 75.0403 64.1809 75.9411 64.5165 77.0789H54.9521V77.0552Z" fill="#0B213E"/>
<path d="M96.9012 65.7477V72.4089C96.2061 71.7689 95.439 71.2711 94.648 70.9392C93.7131 70.5599 92.7063 70.3703 91.6276 70.3703C90.4051 70.3703 89.3264 70.5599 88.3676 70.9629C87.4087 71.3659 86.5218 71.9823 85.7308 72.8119C84.9877 73.5705 84.4124 74.4476 84.0288 75.4432C83.6453 76.4389 83.4296 77.5056 83.4296 78.5961C83.4296 80.9666 84.2206 82.9816 85.8267 84.5461C87.4087 86.1344 89.4223 86.9404 91.8194 86.9404C92.8501 86.9404 93.8329 86.7507 94.7199 86.3477C95.5109 86.0159 96.23 85.5181 96.9012 84.9017V86.5611H100.065V65.7003H96.9012V65.7477ZM95.4869 82.4126C94.4562 83.432 93.2816 83.9535 91.9392 83.9535C90.477 83.9535 89.2066 83.432 88.1998 82.4126C87.193 81.3933 86.6656 80.0895 86.6656 78.5724C86.6656 77.1263 87.169 75.8936 88.1998 74.898C89.2066 73.9024 90.453 73.4046 91.8673 73.4046C93.2576 73.4046 94.4802 73.9261 95.4869 74.9691C96.4937 76.0122 97.0211 77.2923 97.0211 78.762C97.0211 80.1843 96.5177 81.3933 95.4869 82.4126Z" fill="#0B213E"/>
<path d="M27.817 73.3572C27.9129 73.3572 28.0088 73.3335 28.1286 73.3335C28.4642 73.3335 28.7998 73.3809 29.0875 73.4757C29.7586 73.7128 30.286 74.2106 30.5497 74.8743H34.0015C33.8337 73.8313 33.2584 72.9068 32.4434 72.1956C32.1318 71.8637 31.7482 71.603 31.3168 71.3659C30.7894 71.1052 30.1901 70.9155 29.5189 70.8207C29.0875 70.7259 28.632 70.6785 28.1766 70.6785C27.1938 70.6785 26.2589 70.8681 25.4199 71.2C25.348 71.2237 25.2761 71.2711 25.2042 71.2948C25.1562 71.3185 25.1323 71.3185 25.0843 71.3422C24.7008 71.5082 24.3412 71.7215 24.0296 71.9823C22.9509 72.812 22.4235 73.9261 22.4235 75.2773C22.4235 76.2729 22.7591 77.1026 23.4064 77.7901C24.0536 78.4776 25.2042 79.165 26.8342 79.8288C27.1218 79.9473 27.5294 80.1132 28.0807 80.3029C29.6628 80.8955 30.4778 81.583 30.4778 82.4127C30.4778 83.029 30.262 83.5268 29.8066 83.8824C29.3511 84.238 28.7519 84.4276 27.9608 84.4276C27.0499 84.4276 26.3068 84.238 25.7076 83.835C25.6836 83.8113 25.6596 83.8113 25.6596 83.8113C25.1083 83.4083 24.6768 82.8393 24.509 82.1282H21.1771C21.225 82.7919 21.4407 83.4557 21.7763 84.0483C22.3037 84.9965 23.0228 85.7314 23.9097 86.2292C24.8446 86.7507 26.0192 87.0352 27.4095 87.0589C27.4335 87.0589 27.4574 87.0589 27.4814 87.0589C27.5294 87.0589 27.5773 87.0589 27.6252 87.0589C29.5669 87.0589 31.101 86.6322 32.2037 85.7788C33.3063 84.9254 33.8577 83.7402 33.8577 82.223C33.8577 81.18 33.5461 80.3029 32.9468 79.6154C32.3475 78.9279 31.3407 78.2879 29.9264 77.7427C29.6148 77.6242 29.1833 77.4582 28.608 77.2449C26.8102 76.6048 25.8993 75.8699 25.8993 75.0877C25.8993 74.9691 25.9233 74.8506 25.9233 74.7558C26.3068 74.0209 26.978 73.4994 27.817 73.3572Z" fill="#0B213E"/>
<path d="M75.8068 70.6548C71.9954 70.6548 68.9032 73.7128 68.9032 77.4819V86.9641H72.0913V77.7664C72.0913 75.7277 73.7693 74.0921 75.8068 74.0921C77.8683 74.0921 79.5223 75.7515 79.5223 77.7664V86.9641H82.7104V77.4819C82.7104 73.7365 79.6182 70.6548 75.8068 70.6548Z" fill="#0B213E"/>
<path d="M101.743 0.415636C99.7298 -0.414054 97.4046 0.0363477 95.8705 1.5772L75.6869 21.5609V32.418L97.3087 11.0357V46.6649H61.3523L57.2054 40.0037L42.7269 54.3455H99.7058C102.678 54.3455 105.099 51.9512 105.099 49.0118V5.32266C105.075 3.16546 103.781 1.24533 101.743 0.415636Z" fill="#0B213E"/>
<path d="M48.2163 46.6412H42.4872L66.3383 23.0543V45.0767H74.1049V17.3887C74.1049 15.2315 72.7865 13.2877 70.7729 12.458C68.7593 11.6283 66.4342 12.0787 64.9 13.6196L23.718 54.3455H40.4497L48.2163 46.6412Z" fill="#0B213E"/>
<path d="M66.0027 46.6649H50.4695L42.7029 54.3455H68.7354C71.7078 54.3455 74.1288 51.9512 74.1288 49.0118V46.6649H66.0027Z" fill="#0B213E"/>
</g>
<defs>
<clipPath id="clip0_254_386">
<rect width="133" height="88" fill="white" transform="translate(0.928833)"/>
</clipPath>
</defs>
</svg>
