<svg width="94" height="108" viewBox="0 0 94 108" fill="none" xmlns="http://www.w3.org/2000/svg">
<g clip-path="url(#clip0_254_398)">
<path d="M37.3993 24.5759C36.2389 24.4087 36.1836 24.353 36.7362 24.2972C37.7861 24.1301 40.2175 24.353 41.9305 24.7431C45.9091 25.6904 49.5009 28.1425 53.3137 32.4335L54.3084 33.6038L55.7451 33.3808C61.8788 32.3777 68.1783 33.1579 73.4278 35.6099C74.8645 36.2787 77.1301 37.6161 77.4064 37.9505C77.5169 38.062 77.6827 38.7864 77.7932 39.5109C78.18 42.1301 78.0143 44.0805 77.1854 45.5852C76.7433 46.4211 76.7433 46.644 77.0196 47.3685C77.2406 47.9257 77.9037 48.3158 78.5116 48.3158C79.8378 48.3158 81.2192 46.1982 81.8824 43.2446L82.1586 42.0743L82.656 42.6316C85.4742 45.8081 87.6845 50.2106 88.016 53.3313L88.1266 54.1672L87.6292 53.4428C86.8004 52.161 86.0267 51.3251 84.9768 50.6007C83.098 49.3189 81.1087 48.9288 75.8592 48.6502C71.107 48.3716 68.3993 47.9815 65.7469 47.0898C61.2157 45.5852 58.8948 43.6347 53.5348 36.4459C51.1586 33.2694 49.6667 31.5418 48.1747 30.0929C44.9144 26.9164 41.6542 25.2446 37.3993 24.5759Z" fill="#FF007A"/>
<path d="M78.5669 31.6533C78.6774 29.5356 78.9537 28.1424 79.5615 26.8607C79.7825 26.3592 80.0036 25.9133 80.0588 25.9133C80.1141 25.9133 80.0036 26.3034 79.8378 26.7492C79.3957 27.9752 79.3405 29.7028 79.6168 31.6533C80.0036 34.161 80.1693 34.4954 82.8218 37.226C84.0374 38.5078 85.4742 40.1239 86.0267 40.7926L86.9661 42.0186L86.0267 41.127C84.8663 40.0124 82.2139 37.8948 81.6061 37.6161C81.2193 37.3932 81.164 37.3932 80.8877 37.6718C80.6667 37.8948 80.6114 38.2291 80.6114 39.8452C80.5562 42.353 80.2246 43.9133 79.3957 45.5294C78.9537 46.3653 78.8984 46.1982 79.2852 45.2508C79.5615 44.5263 79.6168 44.192 79.6168 41.7957C79.6168 36.9474 79.0642 35.7771 75.6934 33.8266C74.8645 33.3251 73.4278 32.6006 72.5989 32.2105C71.7148 31.8204 71.0517 31.4861 71.107 31.4861C71.2175 31.3746 74.4777 32.322 75.7487 32.8793C77.6827 33.6595 78.0143 33.7152 78.2353 33.6595C78.4011 33.4923 78.5116 33.0465 78.5669 31.6533Z" fill="#FF007A"/>
<path d="M39.6649 39.9566C37.344 36.7244 35.8521 31.709 36.1836 27.9752L36.2941 26.8049L36.8467 26.9164C37.8414 27.0836 39.5544 27.7523 40.3833 28.2538C42.5936 29.5913 43.5882 31.4303 44.5276 36C44.8039 37.3374 45.1907 38.8978 45.3565 39.3994C45.6328 40.2353 46.6827 42.1857 47.5669 43.4117C48.1747 44.3034 47.7879 44.7492 46.4064 44.6377C44.3066 44.4148 41.4884 42.4644 39.6649 39.9566Z" fill="#FF007A"/>
<path d="M75.7487 64.1982C64.8075 59.74 60.9394 55.8948 60.9394 49.3746C60.9394 48.4273 60.9947 47.6471 60.9947 47.6471C61.0499 47.6471 61.4367 47.9815 61.9341 48.3716C64.1444 50.1548 66.631 50.935 73.5383 51.9381C77.5722 52.5511 79.8931 52.9969 81.9929 53.7214C88.6792 55.9505 92.8235 60.5202 93.8182 66.7059C94.0945 68.4892 93.9287 71.8886 93.4866 73.6719C93.0998 75.065 91.9947 77.6285 91.7184 77.6842C91.6631 77.6842 91.5526 77.4056 91.5526 76.9598C91.4421 74.6192 90.2817 72.3901 88.3476 70.6626C86.0268 68.6564 83.0428 67.1517 75.7487 64.1982Z" fill="#FF007A"/>
<path d="M68.0125 66.0372C67.902 65.2013 67.6257 64.1425 67.4599 63.6966L67.1836 62.8607L67.6809 63.4737C68.3993 64.3096 68.9519 65.3127 69.4492 66.7059C69.836 67.7647 69.836 68.0991 69.836 69.8267C69.836 71.4985 69.7808 71.8886 69.4492 72.8359C68.8966 74.3406 68.2335 75.3994 67.1283 76.5697C65.139 78.6316 62.5419 79.7462 58.8396 80.2477C58.1765 80.3034 56.2977 80.4706 54.6399 80.5821C50.4955 80.805 47.7326 81.2508 45.246 82.1424C44.9144 82.2539 44.5829 82.3654 44.5276 82.3096C44.4171 82.1982 46.1301 81.1951 47.5116 80.5264C49.4456 79.579 51.4349 79.0774 55.8004 78.2972C57.9554 77.9629 60.1658 77.5171 60.7184 77.2942C66.189 75.5666 68.8966 71.2756 68.0125 66.0372Z" fill="#FF007A"/>
<path d="M73.041 75.0093C71.6043 71.8329 71.2727 68.8236 72.0463 65.9815C72.1569 65.7028 72.2674 65.4242 72.3779 65.4242C72.4884 65.4242 72.82 65.5914 73.1515 65.8143C73.8146 66.2601 75.1961 67.0403 78.7326 68.9908C83.2086 71.4428 85.7504 73.3375 87.5187 75.5109C89.066 77.4056 90.0054 79.579 90.4474 82.2539C90.7237 83.7586 90.5579 87.3808 90.1711 88.8855C88.9554 93.6223 86.1925 97.4118 82.1586 99.5852C81.5508 99.9195 81.0535 100.142 80.9982 100.142C80.943 100.142 81.164 99.5852 81.4955 98.9165C82.8218 96.0743 82.9875 93.3437 81.9929 90.2787C81.385 88.3839 80.1141 86.0991 77.5722 82.2539C74.533 77.7957 73.8146 76.6254 73.041 75.0093Z" fill="#FF007A"/>
<path d="M31.8735 92.0619C35.9626 88.6068 40.9911 86.1548 45.6328 85.3746C47.6221 85.0402 50.9376 85.1517 52.7612 85.6532C55.6899 86.4334 58.3423 88.1053 59.7237 90.1672C61.0499 92.1734 61.6578 93.9009 62.2656 97.7461C62.4866 99.2508 62.7629 100.811 62.8182 101.145C63.2603 103.152 64.1444 104.712 65.2496 105.548C66.9626 106.83 69.9465 106.885 72.8752 105.771C73.3726 105.604 73.8146 105.437 73.8146 105.492C73.9251 105.604 72.4332 106.607 71.4385 107.108C70.0571 107.833 68.9519 108.056 67.4599 108.056C64.8075 108.056 62.5419 106.663 60.7184 103.876C60.3316 103.319 59.5579 101.703 58.8948 100.198C56.9608 95.6842 55.9661 94.3467 53.7005 92.8421C51.7112 91.5604 49.1694 91.2817 47.2353 92.2291C44.6934 93.4551 44.0303 96.743 45.7986 98.7492C46.5169 99.5851 47.8432 100.254 48.9483 100.421C50.9929 100.7 52.7612 99.0836 52.7612 97.0217C52.7612 95.6842 52.2638 94.904 50.9376 94.291C49.1694 93.5108 47.2353 94.4025 47.2906 96.13C47.2906 96.8545 47.6221 97.3003 48.3405 97.6347C48.7825 97.8576 48.7825 97.8576 48.451 97.8018C46.8485 97.4675 46.4617 95.4613 47.7326 94.1796C49.2799 92.6192 52.5401 93.2879 53.6453 95.4613C54.0874 96.3529 54.1426 98.1362 53.7558 99.2508C52.8164 101.703 50.164 102.985 47.4563 102.26C45.6328 101.759 44.8592 101.257 42.6489 98.9721C38.7808 94.9597 37.2888 94.1796 31.7629 93.3436L30.713 93.1765L31.8735 92.0619Z" fill="#FF007A"/>
<path fill-rule="evenodd" clip-rule="evenodd" d="M2.80752 2.39628C15.6827 18.1672 35.5205 42.6873 36.5152 44.0248C37.3441 45.1393 37.0125 46.1981 35.631 46.9783C34.8574 47.4241 33.2549 47.87 32.4813 47.87C31.5972 47.87 30.5473 47.4241 29.8289 46.6997C29.3316 46.1981 27.1765 43.0217 22.3138 35.387C18.6114 29.5356 15.4617 24.6873 15.4064 24.6316C15.1854 24.5201 15.1854 24.5201 21.9269 36.6687C26.1818 44.3034 27.5633 47.0341 27.5633 47.3684C27.5633 48.0929 27.3423 48.483 26.4581 49.4861C24.9662 51.1579 24.3031 53.0526 23.8057 57.0093C23.2531 61.4118 21.7612 64.5325 17.5063 69.8266C15.0196 72.9474 14.6328 73.5046 14.025 74.7864C13.2514 76.3467 13.0303 77.2384 12.9198 79.2446C12.8093 81.3622 13.0303 82.6997 13.6382 84.7059C14.1908 86.4892 14.7986 87.6594 16.2906 89.9443C17.5615 91.9505 18.3351 93.4551 18.3351 94.0124C18.3351 94.4582 18.4457 94.4582 20.435 94.0124C25.1872 92.8978 29.1105 91.0031 31.2656 88.6625C32.5918 87.2136 32.9234 86.4334 32.9234 84.4272C32.9234 83.1455 32.8681 82.8669 32.5366 82.0867C31.984 80.8607 30.9341 79.8576 28.6685 78.2972C25.6845 76.2353 24.4136 74.5635 24.082 72.3344C23.8057 70.4396 24.1373 69.1579 25.795 65.6471C27.508 62.0248 27.9501 60.5201 28.2264 56.8421C28.3922 54.5015 28.6685 53.5542 29.3316 52.8297C30.0499 52.0495 30.6578 51.7709 32.3708 51.548C35.189 51.1579 37.0125 50.4334 38.4492 49.0402C39.7202 47.87 40.2728 46.6997 40.328 44.9721L40.3833 43.6904L39.6649 42.9102C37.0678 39.9009 1.0945 0 0.928727 0C0.873469 0 1.7576 1.05882 2.80752 2.39628ZM19.7719 81.6409C20.3797 80.582 20.0482 79.2446 19.0535 78.5759C18.1141 77.9628 16.6774 78.2415 16.6774 79.0774C16.6774 79.3003 16.7879 79.5232 17.1195 79.6347C17.6168 79.9133 17.672 80.1919 17.2852 80.805C16.8984 81.418 16.8984 81.9752 17.3958 82.3653C18.1694 82.9783 19.2193 82.644 19.7719 81.6409Z" fill="#FF007A"/>
<path fill-rule="evenodd" clip-rule="evenodd" d="M42.1515 52.3281C40.8253 52.7182 39.5544 54.1671 39.1676 55.616C38.9465 56.5077 39.0571 58.1238 39.4439 58.6253C40.0517 59.4055 40.6043 59.6284 42.1515 59.6284C45.1907 59.6284 47.7879 58.291 48.0642 56.6749C48.3405 55.3374 47.1801 53.4984 45.5776 52.6625C44.7487 52.2167 43.0357 52.0495 42.1515 52.3281ZM45.6881 55.1145C46.1301 54.4458 45.9644 53.7213 45.1355 53.2198C43.6435 52.2724 41.3779 53.0526 41.3779 54.5015C41.3779 55.226 42.5383 56.0061 43.6435 56.0061C44.3619 56.0061 45.3565 55.5603 45.6881 55.1145Z" fill="#FF007A"/>
</g>
<defs>
<clipPath id="clip0_254_398">
<rect width="93" height="108" fill="white" transform="translate(0.928711)"/>
</clipPath>
</defs>
</svg>
