<svg width="56" height="57" viewBox="0 0 56 57" fill="none" xmlns="http://www.w3.org/2000/svg">
<g id="Frame 1000002331">
<g clip-path="url(#clip0_254_852)">
<rect y="0.63385" width="56" height="56" rx="4" fill="#F9E988"/>
<g id="Group 1000002475">
<path id="Vector" d="M37.5996 18.058C35.5471 17.4618 33.4108 16.6209 31.2648 15.7702C31.1424 15.2289 30.6622 14.5554 29.6956 13.7338C28.2875 12.5125 25.6454 12.5448 23.3609 13.0893C20.8411 12.4964 18.3504 12.287 15.9498 12.8605C-3.59274 18.2416 7.49159 31.3978 0.312531 44.6087C1.33398 46.774 12.3442 59.4306 28.2746 56.0249C28.2746 56.0249 22.8292 42.9331 35.1218 36.6499C45.0944 31.5363 52.3024 22.0695 37.5996 18.058Z" fill="#8BC53F"/>
<path id="Vector_2" d="M40.013 26.6638C40.0149 26.8986 39.9472 27.1286 39.8181 27.3249C39.6891 27.521 39.5049 27.6745 39.2885 27.7659C39.0722 27.8571 38.8337 27.8822 38.6031 27.8379C38.3726 27.7934 38.1604 27.6816 37.9934 27.5165C37.8265 27.3513 37.7123 27.1404 37.6654 26.9103C37.6185 26.6803 37.641 26.4415 37.7299 26.2242C37.8189 26.0069 37.9704 25.8209 38.1651 25.6897C38.3599 25.5587 38.5892 25.4884 38.824 25.4877C38.9794 25.4869 39.1333 25.5166 39.277 25.5753C39.4209 25.6339 39.5517 25.7203 39.6621 25.8295C39.7725 25.9387 39.8603 26.0686 39.9206 26.2118C39.9808 26.3549 40.0122 26.5085 40.013 26.6638Z" fill="white"/>
<path id="Vector_3" d="M23.3609 13.0828C24.7851 13.186 29.9374 14.8679 31.2649 15.7702C30.1662 12.548 26.4316 12.1291 23.3609 13.0828Z" fill="#009345"/>
<path id="Vector_4" d="M24.7173 21.2104C24.7173 22.2938 24.3961 23.3528 23.7942 24.2536C23.1923 25.1544 22.3368 25.8566 21.3359 26.2712C20.335 26.6857 19.2336 26.7942 18.171 26.5829C17.1085 26.3715 16.1324 25.8498 15.3664 25.0837C14.6003 24.3177 14.0785 23.3416 13.8672 22.2791C13.6559 21.2165 13.7644 20.1151 14.1789 19.1142C14.5935 18.1132 15.2957 17.2578 16.1965 16.6559C17.0973 16.054 18.1563 15.7328 19.2397 15.7328C20.6924 15.7328 22.0857 16.3099 23.113 17.3371C24.1402 18.3644 24.7173 19.7576 24.7173 21.2104Z" fill="white"/>
<path id="Vector_5" d="M23.0966 21.2574C23.0973 22.0185 22.8723 22.7627 22.4498 23.3958C22.0275 24.0289 21.4269 24.5225 20.724 24.8142C20.021 25.1059 19.2473 25.1826 18.5008 25.0345C17.7543 24.8864 17.0685 24.5202 16.5301 23.9823C15.9917 23.4444 15.6251 22.7588 15.4763 22.0124C15.3276 21.2661 15.4036 20.4923 15.6947 19.7892C15.9858 19.0859 16.4789 18.4849 17.1116 18.062C17.7444 17.6391 18.4883 17.4134 19.2494 17.4134C20.269 17.4143 21.2466 17.8194 21.9678 18.5401C22.689 19.2607 23.095 20.238 23.0966 21.2574Z" fill="#58595B"/>
<path id="Vector_6" d="M44.4435 29.0753C40.013 32.1975 34.9735 34.553 27.8268 34.553C24.4821 34.553 23.8055 31.0086 21.595 32.7421C20.4511 33.6411 16.4396 35.6421 13.2334 35.5003C10.0274 35.3586 4.85582 33.4736 3.42198 26.6586C2.85166 33.4736 2.55844 38.4937 0 44.2486C2.3012 47.9331 -1.86103 52.951 2.56264 55.2178C7.9381 57.9723 21.595 55.2178 28.2746 55.9966C27.092 47.7221 34.3226 39.6151 38.3987 35.4681C39.9388 33.8989 42.9097 31.334 44.4435 29.0624V29.0753Z" fill="#8BC53F"/>
<path id="Vector_7" d="M44.2696 29.281C42.8581 30.495 41.2833 31.5047 39.591 32.2808C37.9043 33.0823 36.1458 33.7231 34.3389 34.1948C32.5345 34.6621 30.6462 35.0133 28.7355 34.8393C26.8247 34.6653 24.8689 34.0144 23.6091 32.5838L23.6702 32.5129C25.2297 33.5215 27.0117 33.8758 28.7903 33.9274C30.5962 33.9799 32.4022 33.8296 34.1745 33.4796C35.9651 33.1063 37.7169 32.567 39.4073 31.8684C41.125 31.2125 42.7423 30.3187 44.2116 29.2133L44.2696 29.281Z" fill="#58595B"/>
</g>
</g>
<rect x="1" y="1.63385" width="54" height="54" rx="3" stroke="black" stroke-width="2"/>
</g>
<defs>
<clipPath id="clip0_254_852">
<rect y="0.63385" width="56" height="56" rx="4" fill="white"/>
</clipPath>
</defs>
</svg>
