<svg width="56" height="57" viewBox="0 0 56 57" fill="none" xmlns="http://www.w3.org/2000/svg">
<rect x="1" y="1.63385" width="54" height="54" rx="3" fill="#54DDFF"/>
<rect x="1" y="1.63385" width="54" height="54" rx="3" stroke="black" stroke-width="2"/>
<g clip-path="url(#clip0_254_829)">
<path fill-rule="evenodd" clip-rule="evenodd" d="M38.3691 18.5405C38.6986 18.4018 39.0592 18.354 39.4135 18.402C39.7677 18.45 40.1026 18.592 40.3834 18.8134C40.6641 19.0347 40.8803 19.3273 41.0096 19.6606C41.1389 19.9939 41.1765 20.3557 41.1184 20.7085L38.0944 39.0511C37.8011 40.8205 35.8598 41.8351 34.2371 40.9538C32.8798 40.2165 30.8638 39.0805 29.0504 37.8951C28.1438 37.3018 25.3664 35.4018 25.7078 34.0498C26.0011 32.8938 30.6678 28.5498 33.3344 25.9671C34.3811 24.9525 33.9038 24.3671 32.6678 25.3005C29.5984 27.6178 24.6704 31.1418 23.0411 32.1338C21.6038 33.0085 20.8544 33.1578 19.9584 33.0085C18.3238 32.7365 16.8078 32.3151 15.5704 31.8018C13.8984 31.1085 13.9798 28.8098 15.5691 28.1405L38.3691 18.5405Z" fill="white"/>
</g>
<defs>
<clipPath id="clip0_254_829">
<rect width="32" height="32" fill="white" transform="translate(12 12.6339)"/>
</clipPath>
</defs>
</svg>
