<svg width="98" height="110" viewBox="0 0 98 110" fill="none" xmlns="http://www.w3.org/2000/svg">
<path d="M96.3497 68.7969L75.1738 27.9342C70.532 19.4148 59.2116 19.3276 54.7304 28.2959L32.497 70.7928C28.3448 78.5845 33.4762 88.3676 41.7844 88.3676H86.3336C94.7241 88.3676 100.991 78.3099 96.3497 68.7969Z" fill="#3156AA"/>
<path d="M65.8082 71.9691L64.5038 69.4329C63.2817 67.0753 60.5945 62.0029 60.5945 62.0029L42.6777 27.3892C38.0359 19.689 27.0406 19.0528 22.3988 28.7488L1.54805 68.8881C-2.7686 77.3161 2.36281 88.2758 11.7286 88.3673H86.1733C74.6883 88.4589 71.0219 81.8438 65.8121 71.9691H65.8082Z" fill="#1972E2"/>
<path d="M65.8125 71.9692L64.5081 69.4329C63.2859 67.0754 60.5988 62.003 60.5988 62.003L49.0316 39.3513L32.4152 70.8841C28.2631 78.6758 33.3945 88.4633 41.6988 88.4633H86.1697C74.6025 88.3718 71.0183 81.8482 65.8085 71.9735L65.8125 71.9692Z" fill="url(#paint0_linear_254_329)"/>
<defs>
<linearGradient id="paint0_linear_254_329" x1="27.5619" y1="56.5775" x2="77.0946" y2="74.0872" gradientUnits="userSpaceOnUse">
<stop stop-color="#264CA2" stop-opacity="0"/>
<stop offset="1" stop-color="#234588"/>
</linearGradient>
</defs>
</svg>
