<svg width="56" height="57" viewBox="0 0 56 57" fill="none" xmlns="http://www.w3.org/2000/svg">
<rect x="1" y="1.63385" width="54" height="54" rx="3" fill="#2C2C2C"/>
<rect x="1" y="1.63385" width="54" height="54" rx="3" stroke="black" stroke-width="2"/>
<g clip-path="url(#clip0_254_834)">
<mask id="mask0_254_834" style="mask-type:luminance" maskUnits="userSpaceOnUse" x="13" y="12" width="30" height="33">
<path d="M42.8148 12.6339H13.1852V44.6339H42.8148V12.6339Z" fill="white"/>
</mask>
<g mask="url(#mask0_254_834)">
<path d="M37.7762 31.4378C37.3281 31.7177 36.8053 31.7686 36.407 31.5396C35.9091 31.2343 35.6104 30.5473 35.6104 29.6059V26.7307C35.6104 25.3567 35.0876 24.3644 34.1914 24.11C32.6728 23.652 31.5276 25.5603 31.1044 26.2727L28.4158 30.6745V25.255C28.3909 24.0082 27.9926 23.2703 27.2457 23.0413C26.7478 22.8887 26.001 22.965 25.279 24.0845L19.2793 33.9059C18.4827 32.3538 18.0595 30.6236 18.0595 28.868C18.0595 22.9396 22.7148 18.1307 28.4158 18.1307C34.1167 18.1307 38.772 22.9396 38.772 28.868V28.8934V28.9189C38.8218 30.0639 38.4733 30.9798 37.7762 31.4378ZM41.0624 28.868V28.8425V28.8171C41.0375 21.6165 35.3614 15.7389 28.4158 15.7389C21.4452 15.7389 15.7691 21.6165 15.7691 28.868C15.7691 36.0941 21.4452 41.997 28.4158 41.997C31.6272 41.997 34.6644 40.7503 37.0045 38.4858C37.4775 38.0278 37.5024 37.2899 37.0543 36.8065C36.6311 36.3231 35.9091 36.2976 35.4361 36.7302C35.4361 36.7302 35.4361 36.7302 35.4112 36.7556C33.5192 38.5876 30.9799 39.6308 28.366 39.6308C25.3039 39.6308 22.5655 38.2568 20.6734 36.0686L26.0757 27.2141V31.3106C26.0757 33.2698 26.8225 33.9059 27.4449 34.084C28.0673 34.2621 29.0132 34.1349 30.0339 32.481L32.9964 27.5704C33.096 27.4177 33.1707 27.265 33.2702 27.1632V29.6568C33.2702 31.4887 33.9922 32.9645 35.2369 33.6769C36.3572 34.3384 37.7762 34.2621 38.9463 33.5242C40.3902 32.5574 41.162 30.8781 41.0624 28.868Z" fill="white"/>
</g>
</g>
<defs>
<clipPath id="clip0_254_834">
<rect width="29.6296" height="32" fill="white" transform="translate(13.1852 12.6339)"/>
</clipPath>
</defs>
</svg>
